<svg xmlns="http://www.w3.org/2000/svg" viewBox="0 0 189.98 209.76">
    <defs>
        <style>.cls-1{fill:#FD971F;}.cls-2{fill:#A6E22E;}.cls-3{fill:#272822;}</style>
    </defs>
    <g id="Слой_2" data-name="Слой 2">
        <g id="Layer_1" data-name="Layer 1">
            <path class="cls-1"
                  d="M161.75,125.42l-4.8,4.06-4.48,3.59v14.29A63.8,63.8,0,0,1,151,162.23a20.43,20.43,0,0,1-4.88,9.53,19,19,0,0,1-9.19,5,60.84,60.84,0,0,1-14.64,1.47H64.9a60.84,60.84,0,0,1-14.64-1.47,19,19,0,0,1-9.19-5,20.34,20.34,0,0,1-4.88-9.53,63.8,63.8,0,0,1-1.47-14.87v-34a63.8,63.8,0,0,1,1.47-14.87,20.39,20.39,0,0,1,4.88-9.53,19.05,19.05,0,0,1,9.19-5A60.79,60.79,0,0,1,64.9,82.46H99.06l1.69-5A121.07,121.07,0,0,1,113.5,50.92h-50q-17.25,0-29.28,3.29T14.64,64.65A41.72,41.72,0,0,0,3.52,83.15Q0,94.49,0,110.83v39q0,16.33,3.52,27.8a41.63,41.63,0,0,0,11.12,18.6q7.59,7.16,19.62,10.33t29.28,3.17h60.11q17.25,0,29.39-3.17t19.74-10.33a40.85,40.85,0,0,0,11-18.6q3.39-11.46,3.4-27.8v-39a127.21,127.21,0,0,0-.74-14A121.65,121.65,0,0,1,161.75,125.42Z"/>
            <path class="cls-2"
                  d="M115,82.25c1,2.12,1.86,4.29,2.71,6.47a101.14,101.14,0,0,1,6.17,25,178.32,178.32,0,0,1,28.22.26A106.67,106.67,0,0,0,188.3,13.68,107.47,107.47,0,0,0,143.55,38.5,103,103,0,0,0,115,82.25Z"/>
            <path class="cls-3" d="M97.15,39.3A98,98,0,0,0,74.05,0l-7,4a93,93,0,0,1,28,36.1A18,18,0,0,0,97.15,39.3Z"/>
        </g>
    </g>
</svg>
