<svg xmlns="http://www.w3.org/2000/svg" viewBox="0 0 1409.62 209.76">
    <defs>
        <style>.cls-1{fill:#272822;}.cls-2{fill:#FD971F;}.cls-3{fill:#A6E22E;}.cls-4{fill:#272822;}</style>
    </defs>
    <g id="Слой_2" data-name="Слой 2">
        <g id="Layer_1" data-name="Layer 1">
            <path class="cls-1" d="M620,49.24q5,0,5,5V203.09q0,5-5,5H595.52q-5.22,0-5.22-5V54.24q0-5,5.22-5Z"/>
            <path class="cls-1"
                  d="M809.26,49.24q5,0,5,5V76.47q0,5.22-5,5.22h-91a60.64,60.64,0,0,0-14.63,1.48,19,19,0,0,0-9.19,5,20.28,20.28,0,0,0-4.88,9.42,62.78,62.78,0,0,0-1.48,15v32.22a64.22,64.22,0,0,0,1.48,15.09,20.38,20.38,0,0,0,4.88,9.54,19.05,19.05,0,0,0,9.19,5,60.7,60.7,0,0,0,14.63,1.47h91c3.33,0,5,1.67,5,5v22.24q0,5-5,5H716.92q-17.25,0-29.27-3.17T668,194.58A41.72,41.72,0,0,1,656.9,176q-3.51-11.46-3.51-27.8v-39q0-16.34,3.51-27.69A41.83,41.83,0,0,1,668,63q7.61-7.14,19.63-10.44t29.27-3.29Z"/>
            <path class="cls-1"
                  d="M1220.51,84.53a46.48,46.48,0,0,0-12.37-20q-8.4-7.83-21.56-11.57T1155,49.24h-96.19q-6.81,0-6.81,6.81V201.28q0,6.81,6.81,6.8h27.91V84q0-3.18,3-3.18h64.42a66.26,66.26,0,0,1,16.8,1.82,24.52,24.52,0,0,1,11,5.9,23.08,23.08,0,0,1,6,10.89,66.23,66.23,0,0,1,1.82,16.79v25a66.26,66.26,0,0,1-1.82,16.8,23.17,23.17,0,0,1-6,10.89,24.52,24.52,0,0,1-11,5.9,66.31,66.31,0,0,1-16.8,1.81h-41.78l.14,31.54H1155q18.39,0,31.54-3.74t21.56-11.57a46.48,46.48,0,0,0,12.37-20q4-12.13,4-28.71V113.23Q1224.48,96.67,1220.51,84.53Z"/>
            <path class="cls-1"
                  d="M1409.62,75.79V54.24q0-5-5.22-5h-89.84q-17.25,0-29.27,3.29T1265.66,63a41.83,41.83,0,0,0-11.12,18.49Q1251,92.82,1251,109.15v39q0,16.33,3.52,27.8a41.72,41.72,0,0,0,11.12,18.6q7.6,7.15,19.63,10.33t29.27,3.17h89.84q5.22,0,5.22-5V181.53c0-3.32-1.74-5-5.22-5h-89.16a60.7,60.7,0,0,1-14.63-1.47,19.77,19.77,0,0,1-9.31-5,19.14,19.14,0,0,1-4.88-9.54,69,69,0,0,1-1.36-14.86v-3.86h0V113.91h0v-2.26a69.13,69.13,0,0,1,1.36-14.87,19.19,19.19,0,0,1,4.88-9.53,19.77,19.77,0,0,1,9.31-5,60.64,60.64,0,0,1,14.63-1.48h89.16Q1409.62,80.78,1409.62,75.79Z"/>
            <path class="cls-1"
                  d="M361.14,61q-11.36-11.79-37.44-11.8H211.84q-6.81,0-6.81,6.81v147q0,5,5.22,5h24.51q5,0,5-5V83.28c0-1.82,1-2.72,2.95-2.72h74q11.58,0,16.34,5t4.76,15.2v8.63q0,10.2-4.76,15.2t-16.34,5H266.21v23.5l.08,6.45H323.7q26.08,0,37.44-11.8t11.34-34.94V96Q372.48,72.85,361.14,61Z"/>
            <path class="cls-1"
                  d="M567.39,202.41l-38.81-48.1q17.92-3.18,25.87-14.53t7.94-30.86V96q0-23.14-11.34-34.95t-37.44-11.8H401.75q-6.81,0-6.8,6.81v147c0,3.33,1.73,5,5.21,5h24.51q5,0,5-5v-120c0-1.81,1-2.72,2.95-2.72h74q11.58,0,16.34,5t4.77,15.21v9.53q0,10.2-4.77,15.2t-16.34,5H457.38v18.32l0,9.37H493l35.85,47.19a8,8,0,0,0,2.27,2.27,8.51,8.51,0,0,0,4.08.68h29.28c2.11,0,3.32-.75,3.63-2.26A3.6,3.6,0,0,0,567.39,202.41Z"/>
            <path class="cls-1"
                  d="M185.33,202.86,120.16,66.49q-4.92-10.21-10-13.73a21.75,21.75,0,0,0-12.6-3.52H85.9a18,18,0,0,0-11,3.52q-4.72,3.52-9.65,13.73L.66,202.86a5.32,5.32,0,0,0-.49,3.75c.32,1,1.34,1.47,3.05,1.47H28.81a4.67,4.67,0,0,0,4.53-3l13.58-29.27H47L62.32,143.1h0l27.92-60a2.4,2.4,0,0,1,2.16-1.59h1.18a2.43,2.43,0,0,1,2.17,1.59l31.3,66.49h0l15.9,33.61h0l10.5,22a4.45,4.45,0,0,0,4.53,3h25c1.58,0,2.53-.49,2.86-1.47A5.43,5.43,0,0,0,185.33,202.86Z"/>
            <path class="cls-2"
                  d="M106.67,173.78a5,5,0,0,0,5-5V150.87a5,5,0,0,0-5-5H80.82a5,5,0,0,0-5,5l-.07,17.91a5,5,0,0,0,5,5Z"/>
            <path class="cls-1"
                  d="M1373.25,141.82a5,5,0,0,0,5-5V118.91a5,5,0,0,0-5-5H1317.4a5,5,0,0,0-5,5l-.07,17.92a5,5,0,0,0,5,5Z"/>
            <path class="cls-2"
                  d="M999.37,125.42l-4.79,4.06-4.49,3.59v14.29a63.8,63.8,0,0,1-1.47,14.87,20.43,20.43,0,0,1-4.88,9.53,19,19,0,0,1-9.19,5,60.84,60.84,0,0,1-14.64,1.47H902.52a60.84,60.84,0,0,1-14.64-1.47,19,19,0,0,1-9.19-5,20.43,20.43,0,0,1-4.88-9.53,63.8,63.8,0,0,1-1.47-14.87v-34a63.8,63.8,0,0,1,1.47-14.87,20.48,20.48,0,0,1,4.88-9.53,19.1,19.1,0,0,1,9.19-5,60.79,60.79,0,0,1,14.64-1.48h34.16l1.69-5a121.07,121.07,0,0,1,12.75-26.53h-50q-17.25,0-29.27,3.29T852.26,64.65a41.72,41.72,0,0,0-11.12,18.5q-3.52,11.34-3.52,27.68v39q0,16.33,3.52,27.8a41.63,41.63,0,0,0,11.12,18.6q7.59,7.16,19.63,10.33t29.27,3.17h60.12q17.24,0,29.38-3.17t19.74-10.33a40.85,40.85,0,0,0,11-18.6q3.41-11.46,3.4-27.8v-39a124.8,124.8,0,0,0-.74-14A121.65,121.65,0,0,1,999.37,125.42Z"/>
            <path class="cls-3"
                  d="M952.58,82.25c1,2.12,1.86,4.29,2.71,6.47a101.14,101.14,0,0,1,6.17,25,178.29,178.29,0,0,1,28.22.26,106.67,106.67,0,0,0,36.24-100.29A107.47,107.47,0,0,0,981.17,38.5a103.13,103.13,0,0,0-28.59,43.75Z"/>
            <path class="cls-4"
                  d="M934.77,39.3A98,98,0,0,0,911.67,0l-7,4a93,93,0,0,1,28,36.1A18,18,0,0,0,934.77,39.3Z"/>
        </g>
    </g>
</svg>
